<?xml version="1.0" encoding="utf-8" standalone="no"?>
<!DOCTYPE svg PUBLIC "-//W3C//DTD SVG 1.1//EN"
  "http://www.w3.org/Graphics/SVG/1.1/DTD/svg11.dtd">
<!-- Created with matplotlib (https://matplotlib.org/) -->
<svg height="288pt" version="1.1" viewBox="0 0 432 288" width="432pt" xmlns="http://www.w3.org/2000/svg" xmlns:xlink="http://www.w3.org/1999/xlink">
 <defs>
  <style type="text/css">
*{stroke-linecap:butt;stroke-linejoin:round;}
  </style>
 </defs>
 <g id="figure_1">
  <g id="patch_1">
   <path d="M 0 288 
L 432 288 
L 432 0 
L 0 0 
z
" style="fill:#ffffff;"/>
  </g>
  <g id="axes_1">
   <g id="patch_2">
    <path d="M 54 230.4 
L 388.8 230.4 
L 388.8 34.56 
L 54 34.56 
z
" style="fill:#ffffff;"/>
   </g>
   <g id="matplotlib.axis_1">
    <g id="xtick_1">
     <g id="line2d_1">
      <defs>
       <path d="M 0 0 
L 0 3.5 
" id="m2de2e809bc" style="stroke:#000000;stroke-width:0.8;"/>
      </defs>
      <g>
       <use style="stroke:#000000;stroke-width:0.8;" x="54" xlink:href="#m2de2e809bc" y="230.4"/>
      </g>
     </g>
     <g id="text_1">
      <!-- 2007-01 -->
      <defs>
       <path d="M 19.1875 8.296875 
L 53.609375 8.296875 
L 53.609375 0 
L 7.328125 0 
L 7.328125 8.296875 
Q 12.9375 14.109375 22.625 23.890625 
Q 32.328125 33.6875 34.8125 36.53125 
Q 39.546875 41.84375 41.421875 45.53125 
Q 43.3125 49.21875 43.3125 52.78125 
Q 43.3125 58.59375 39.234375 62.25 
Q 35.15625 65.921875 28.609375 65.921875 
Q 23.96875 65.921875 18.8125 64.3125 
Q 13.671875 62.703125 7.8125 59.421875 
L 7.8125 69.390625 
Q 13.765625 71.78125 18.9375 73 
Q 24.125 74.21875 28.421875 74.21875 
Q 39.75 74.21875 46.484375 68.546875 
Q 53.21875 62.890625 53.21875 53.421875 
Q 53.21875 48.921875 51.53125 44.890625 
Q 49.859375 40.875 45.40625 35.40625 
Q 44.1875 33.984375 37.640625 27.21875 
Q 31.109375 20.453125 19.1875 8.296875 
z
" id="DejaVuSans-50"/>
       <path d="M 31.78125 66.40625 
Q 24.171875 66.40625 20.328125 58.90625 
Q 16.5 51.421875 16.5 36.375 
Q 16.5 21.390625 20.328125 13.890625 
Q 24.171875 6.390625 31.78125 6.390625 
Q 39.453125 6.390625 43.28125 13.890625 
Q 47.125 21.390625 47.125 36.375 
Q 47.125 51.421875 43.28125 58.90625 
Q 39.453125 66.40625 31.78125 66.40625 
z
M 31.78125 74.21875 
Q 44.046875 74.21875 50.515625 64.515625 
Q 56.984375 54.828125 56.984375 36.375 
Q 56.984375 17.96875 50.515625 8.265625 
Q 44.046875 -1.421875 31.78125 -1.421875 
Q 19.53125 -1.421875 13.0625 8.265625 
Q 6.59375 17.96875 6.59375 36.375 
Q 6.59375 54.828125 13.0625 64.515625 
Q 19.53125 74.21875 31.78125 74.21875 
z
" id="DejaVuSans-48"/>
       <path d="M 8.203125 72.90625 
L 55.078125 72.90625 
L 55.078125 68.703125 
L 28.609375 0 
L 18.3125 0 
L 43.21875 64.59375 
L 8.203125 64.59375 
z
" id="DejaVuSans-55"/>
       <path d="M 4.890625 31.390625 
L 31.203125 31.390625 
L 31.203125 23.390625 
L 4.890625 23.390625 
z
" id="DejaVuSans-45"/>
       <path d="M 12.40625 8.296875 
L 28.515625 8.296875 
L 28.515625 63.921875 
L 10.984375 60.40625 
L 10.984375 69.390625 
L 28.421875 72.90625 
L 38.28125 72.90625 
L 38.28125 8.296875 
L 54.390625 8.296875 
L 54.390625 0 
L 12.40625 0 
z
" id="DejaVuSans-49"/>
      </defs>
      <g transform="translate(16.775179 264.871846)rotate(-30)scale(0.1 -0.1)">
       <use xlink:href="#DejaVuSans-50"/>
       <use x="63.623047" xlink:href="#DejaVuSans-48"/>
       <use x="127.246094" xlink:href="#DejaVuSans-48"/>
       <use x="190.869141" xlink:href="#DejaVuSans-55"/>
       <use x="254.492188" xlink:href="#DejaVuSans-45"/>
       <use x="290.576172" xlink:href="#DejaVuSans-48"/>
       <use x="354.199219" xlink:href="#DejaVuSans-49"/>
      </g>
     </g>
    </g>
    <g id="xtick_2">
     <g id="line2d_2">
      <g>
       <use style="stroke:#000000;stroke-width:0.8;" x="95.477618" xlink:href="#m2de2e809bc" y="230.4"/>
      </g>
     </g>
     <g id="text_2">
      <!-- 2007-07 -->
      <g transform="translate(58.252797 264.871846)rotate(-30)scale(0.1 -0.1)">
       <use xlink:href="#DejaVuSans-50"/>
       <use x="63.623047" xlink:href="#DejaVuSans-48"/>
       <use x="127.246094" xlink:href="#DejaVuSans-48"/>
       <use x="190.869141" xlink:href="#DejaVuSans-55"/>
       <use x="254.492188" xlink:href="#DejaVuSans-45"/>
       <use x="290.576172" xlink:href="#DejaVuSans-48"/>
       <use x="354.199219" xlink:href="#DejaVuSans-55"/>
      </g>
     </g>
    </g>
    <g id="xtick_3">
     <g id="line2d_3">
      <g>
       <use style="stroke:#000000;stroke-width:0.8;" x="137.64271" xlink:href="#m2de2e809bc" y="230.4"/>
      </g>
     </g>
     <g id="text_3">
      <!-- 2008-01 -->
      <defs>
       <path d="M 31.78125 34.625 
Q 24.75 34.625 20.71875 30.859375 
Q 16.703125 27.09375 16.703125 20.515625 
Q 16.703125 13.921875 20.71875 10.15625 
Q 24.75 6.390625 31.78125 6.390625 
Q 38.8125 6.390625 42.859375 10.171875 
Q 46.921875 13.96875 46.921875 20.515625 
Q 46.921875 27.09375 42.890625 30.859375 
Q 38.875 34.625 31.78125 34.625 
z
M 21.921875 38.8125 
Q 15.578125 40.375 12.03125 44.71875 
Q 8.5 49.078125 8.5 55.328125 
Q 8.5 64.0625 14.71875 69.140625 
Q 20.953125 74.21875 31.78125 74.21875 
Q 42.671875 74.21875 48.875 69.140625 
Q 55.078125 64.0625 55.078125 55.328125 
Q 55.078125 49.078125 51.53125 44.71875 
Q 48 40.375 41.703125 38.8125 
Q 48.828125 37.15625 52.796875 32.3125 
Q 56.78125 27.484375 56.78125 20.515625 
Q 56.78125 9.90625 50.3125 4.234375 
Q 43.84375 -1.421875 31.78125 -1.421875 
Q 19.734375 -1.421875 13.25 4.234375 
Q 6.78125 9.90625 6.78125 20.515625 
Q 6.78125 27.484375 10.78125 32.3125 
Q 14.796875 37.15625 21.921875 38.8125 
z
M 18.3125 54.390625 
Q 18.3125 48.734375 21.84375 45.5625 
Q 25.390625 42.390625 31.78125 42.390625 
Q 38.140625 42.390625 41.71875 45.5625 
Q 45.3125 48.734375 45.3125 54.390625 
Q 45.3125 60.0625 41.71875 63.234375 
Q 38.140625 66.40625 31.78125 66.40625 
Q 25.390625 66.40625 21.84375 63.234375 
Q 18.3125 60.0625 18.3125 54.390625 
z
" id="DejaVuSans-56"/>
      </defs>
      <g transform="translate(100.41789 264.871846)rotate(-30)scale(0.1 -0.1)">
       <use xlink:href="#DejaVuSans-50"/>
       <use x="63.623047" xlink:href="#DejaVuSans-48"/>
       <use x="127.246094" xlink:href="#DejaVuSans-48"/>
       <use x="190.869141" xlink:href="#DejaVuSans-56"/>
       <use x="254.492188" xlink:href="#DejaVuSans-45"/>
       <use x="290.576172" xlink:href="#DejaVuSans-48"/>
       <use x="354.199219" xlink:href="#DejaVuSans-49"/>
      </g>
     </g>
    </g>
    <g id="xtick_4">
     <g id="line2d_4">
      <g>
       <use style="stroke:#000000;stroke-width:0.8;" x="179.349487" xlink:href="#m2de2e809bc" y="230.4"/>
      </g>
     </g>
     <g id="text_4">
      <!-- 2008-07 -->
      <g transform="translate(142.124666 264.871846)rotate(-30)scale(0.1 -0.1)">
       <use xlink:href="#DejaVuSans-50"/>
       <use x="63.623047" xlink:href="#DejaVuSans-48"/>
       <use x="127.246094" xlink:href="#DejaVuSans-48"/>
       <use x="190.869141" xlink:href="#DejaVuSans-56"/>
       <use x="254.492188" xlink:href="#DejaVuSans-45"/>
       <use x="290.576172" xlink:href="#DejaVuSans-48"/>
       <use x="354.199219" xlink:href="#DejaVuSans-55"/>
      </g>
     </g>
    </g>
    <g id="xtick_5">
     <g id="line2d_5">
      <g>
       <use style="stroke:#000000;stroke-width:0.8;" x="221.514579" xlink:href="#m2de2e809bc" y="230.4"/>
      </g>
     </g>
     <g id="text_5">
      <!-- 2009-01 -->
      <defs>
       <path d="M 10.984375 1.515625 
L 10.984375 10.5 
Q 14.703125 8.734375 18.5 7.8125 
Q 22.3125 6.890625 25.984375 6.890625 
Q 35.75 6.890625 40.890625 13.453125 
Q 46.046875 20.015625 46.78125 33.40625 
Q 43.953125 29.203125 39.59375 26.953125 
Q 35.25 24.703125 29.984375 24.703125 
Q 19.046875 24.703125 12.671875 31.3125 
Q 6.296875 37.9375 6.296875 49.421875 
Q 6.296875 60.640625 12.9375 67.421875 
Q 19.578125 74.21875 30.609375 74.21875 
Q 43.265625 74.21875 49.921875 64.515625 
Q 56.59375 54.828125 56.59375 36.375 
Q 56.59375 19.140625 48.40625 8.859375 
Q 40.234375 -1.421875 26.421875 -1.421875 
Q 22.703125 -1.421875 18.890625 -0.6875 
Q 15.09375 0.046875 10.984375 1.515625 
z
M 30.609375 32.421875 
Q 37.25 32.421875 41.125 36.953125 
Q 45.015625 41.5 45.015625 49.421875 
Q 45.015625 57.28125 41.125 61.84375 
Q 37.25 66.40625 30.609375 66.40625 
Q 23.96875 66.40625 20.09375 61.84375 
Q 16.21875 57.28125 16.21875 49.421875 
Q 16.21875 41.5 20.09375 36.953125 
Q 23.96875 32.421875 30.609375 32.421875 
z
" id="DejaVuSans-57"/>
      </defs>
      <g transform="translate(184.289758 264.871846)rotate(-30)scale(0.1 -0.1)">
       <use xlink:href="#DejaVuSans-50"/>
       <use x="63.623047" xlink:href="#DejaVuSans-48"/>
       <use x="127.246094" xlink:href="#DejaVuSans-48"/>
       <use x="190.869141" xlink:href="#DejaVuSans-57"/>
       <use x="254.492188" xlink:href="#DejaVuSans-45"/>
       <use x="290.576172" xlink:href="#DejaVuSans-48"/>
       <use x="354.199219" xlink:href="#DejaVuSans-49"/>
      </g>
     </g>
    </g>
    <g id="xtick_6">
     <g id="line2d_6">
      <g>
       <use style="stroke:#000000;stroke-width:0.8;" x="262.992197" xlink:href="#m2de2e809bc" y="230.4"/>
      </g>
     </g>
     <g id="text_6">
      <!-- 2009-07 -->
      <g transform="translate(225.767376 264.871846)rotate(-30)scale(0.1 -0.1)">
       <use xlink:href="#DejaVuSans-50"/>
       <use x="63.623047" xlink:href="#DejaVuSans-48"/>
       <use x="127.246094" xlink:href="#DejaVuSans-48"/>
       <use x="190.869141" xlink:href="#DejaVuSans-57"/>
       <use x="254.492188" xlink:href="#DejaVuSans-45"/>
       <use x="290.576172" xlink:href="#DejaVuSans-48"/>
       <use x="354.199219" xlink:href="#DejaVuSans-55"/>
      </g>
     </g>
    </g>
    <g id="xtick_7">
     <g id="line2d_7">
      <g>
       <use style="stroke:#000000;stroke-width:0.8;" x="305.15729" xlink:href="#m2de2e809bc" y="230.4"/>
      </g>
     </g>
     <g id="text_7">
      <!-- 2010-01 -->
      <g transform="translate(267.932469 264.871846)rotate(-30)scale(0.1 -0.1)">
       <use xlink:href="#DejaVuSans-50"/>
       <use x="63.623047" xlink:href="#DejaVuSans-48"/>
       <use x="127.246094" xlink:href="#DejaVuSans-49"/>
       <use x="190.869141" xlink:href="#DejaVuSans-48"/>
       <use x="254.492188" xlink:href="#DejaVuSans-45"/>
       <use x="290.576172" xlink:href="#DejaVuSans-48"/>
       <use x="354.199219" xlink:href="#DejaVuSans-49"/>
      </g>
     </g>
    </g>
    <g id="xtick_8">
     <g id="line2d_8">
      <g>
       <use style="stroke:#000000;stroke-width:0.8;" x="346.634908" xlink:href="#m2de2e809bc" y="230.4"/>
      </g>
     </g>
     <g id="text_8">
      <!-- 2010-07 -->
      <g transform="translate(309.410087 264.871846)rotate(-30)scale(0.1 -0.1)">
       <use xlink:href="#DejaVuSans-50"/>
       <use x="63.623047" xlink:href="#DejaVuSans-48"/>
       <use x="127.246094" xlink:href="#DejaVuSans-49"/>
       <use x="190.869141" xlink:href="#DejaVuSans-48"/>
       <use x="254.492188" xlink:href="#DejaVuSans-45"/>
       <use x="290.576172" xlink:href="#DejaVuSans-48"/>
       <use x="354.199219" xlink:href="#DejaVuSans-55"/>
      </g>
     </g>
    </g>
    <g id="xtick_9">
     <g id="line2d_9">
      <g>
       <use style="stroke:#000000;stroke-width:0.8;" x="388.8" xlink:href="#m2de2e809bc" y="230.4"/>
      </g>
     </g>
     <g id="text_9">
      <!-- 2011-01 -->
      <g transform="translate(351.575179 264.871846)rotate(-30)scale(0.1 -0.1)">
       <use xlink:href="#DejaVuSans-50"/>
       <use x="63.623047" xlink:href="#DejaVuSans-48"/>
       <use x="127.246094" xlink:href="#DejaVuSans-49"/>
       <use x="190.869141" xlink:href="#DejaVuSans-49"/>
       <use x="254.492188" xlink:href="#DejaVuSans-45"/>
       <use x="290.576172" xlink:href="#DejaVuSans-48"/>
       <use x="354.199219" xlink:href="#DejaVuSans-49"/>
      </g>
     </g>
    </g>
   </g>
   <g id="matplotlib.axis_2">
    <g id="ytick_1">
     <g id="line2d_10">
      <defs>
       <path d="M 0 0 
L -3.5 0 
" id="mec740a08c6" style="stroke:#000000;stroke-width:0.8;"/>
      </defs>
      <g>
       <use style="stroke:#000000;stroke-width:0.8;" x="54" xlink:href="#mec740a08c6" y="230.4"/>
      </g>
     </g>
     <g id="text_10">
      <!-- 600 -->
      <defs>
       <path d="M 33.015625 40.375 
Q 26.375 40.375 22.484375 35.828125 
Q 18.609375 31.296875 18.609375 23.390625 
Q 18.609375 15.53125 22.484375 10.953125 
Q 26.375 6.390625 33.015625 6.390625 
Q 39.65625 6.390625 43.53125 10.953125 
Q 47.40625 15.53125 47.40625 23.390625 
Q 47.40625 31.296875 43.53125 35.828125 
Q 39.65625 40.375 33.015625 40.375 
z
M 52.59375 71.296875 
L 52.59375 62.3125 
Q 48.875 64.0625 45.09375 64.984375 
Q 41.3125 65.921875 37.59375 65.921875 
Q 27.828125 65.921875 22.671875 59.328125 
Q 17.53125 52.734375 16.796875 39.40625 
Q 19.671875 43.65625 24.015625 45.921875 
Q 28.375 48.1875 33.59375 48.1875 
Q 44.578125 48.1875 50.953125 41.515625 
Q 57.328125 34.859375 57.328125 23.390625 
Q 57.328125 12.15625 50.6875 5.359375 
Q 44.046875 -1.421875 33.015625 -1.421875 
Q 20.359375 -1.421875 13.671875 8.265625 
Q 6.984375 17.96875 6.984375 36.375 
Q 6.984375 53.65625 15.1875 63.9375 
Q 23.390625 74.21875 37.203125 74.21875 
Q 40.921875 74.21875 44.703125 73.484375 
Q 48.484375 72.75 52.59375 71.296875 
z
" id="DejaVuSans-54"/>
      </defs>
      <g transform="translate(27.9125 234.199219)scale(0.1 -0.1)">
       <use xlink:href="#DejaVuSans-54"/>
       <use x="63.623047" xlink:href="#DejaVuSans-48"/>
       <use x="127.246094" xlink:href="#DejaVuSans-48"/>
      </g>
     </g>
    </g>
    <g id="ytick_2">
     <g id="line2d_11">
      <g>
       <use style="stroke:#000000;stroke-width:0.8;" x="54" xlink:href="#mec740a08c6" y="200.270769"/>
      </g>
     </g>
     <g id="text_11">
      <!-- 800 -->
      <g transform="translate(27.9125 204.069988)scale(0.1 -0.1)">
       <use xlink:href="#DejaVuSans-56"/>
       <use x="63.623047" xlink:href="#DejaVuSans-48"/>
       <use x="127.246094" xlink:href="#DejaVuSans-48"/>
      </g>
     </g>
    </g>
    <g id="ytick_3">
     <g id="line2d_12">
      <g>
       <use style="stroke:#000000;stroke-width:0.8;" x="54" xlink:href="#mec740a08c6" y="170.141538"/>
      </g>
     </g>
     <g id="text_12">
      <!-- 1000 -->
      <g transform="translate(21.55 173.940757)scale(0.1 -0.1)">
       <use xlink:href="#DejaVuSans-49"/>
       <use x="63.623047" xlink:href="#DejaVuSans-48"/>
       <use x="127.246094" xlink:href="#DejaVuSans-48"/>
       <use x="190.869141" xlink:href="#DejaVuSans-48"/>
      </g>
     </g>
    </g>
    <g id="ytick_4">
     <g id="line2d_13">
      <g>
       <use style="stroke:#000000;stroke-width:0.8;" x="54" xlink:href="#mec740a08c6" y="140.012308"/>
      </g>
     </g>
     <g id="text_13">
      <!-- 1200 -->
      <g transform="translate(21.55 143.811526)scale(0.1 -0.1)">
       <use xlink:href="#DejaVuSans-49"/>
       <use x="63.623047" xlink:href="#DejaVuSans-50"/>
       <use x="127.246094" xlink:href="#DejaVuSans-48"/>
       <use x="190.869141" xlink:href="#DejaVuSans-48"/>
      </g>
     </g>
    </g>
    <g id="ytick_5">
     <g id="line2d_14">
      <g>
       <use style="stroke:#000000;stroke-width:0.8;" x="54" xlink:href="#mec740a08c6" y="109.883077"/>
      </g>
     </g>
     <g id="text_14">
      <!-- 1400 -->
      <defs>
       <path d="M 37.796875 64.3125 
L 12.890625 25.390625 
L 37.796875 25.390625 
z
M 35.203125 72.90625 
L 47.609375 72.90625 
L 47.609375 25.390625 
L 58.015625 25.390625 
L 58.015625 17.1875 
L 47.609375 17.1875 
L 47.609375 0 
L 37.796875 0 
L 37.796875 17.1875 
L 4.890625 17.1875 
L 4.890625 26.703125 
z
" id="DejaVuSans-52"/>
      </defs>
      <g transform="translate(21.55 113.682296)scale(0.1 -0.1)">
       <use xlink:href="#DejaVuSans-49"/>
       <use x="63.623047" xlink:href="#DejaVuSans-52"/>
       <use x="127.246094" xlink:href="#DejaVuSans-48"/>
       <use x="190.869141" xlink:href="#DejaVuSans-48"/>
      </g>
     </g>
    </g>
    <g id="ytick_6">
     <g id="line2d_15">
      <g>
       <use style="stroke:#000000;stroke-width:0.8;" x="54" xlink:href="#mec740a08c6" y="79.753846"/>
      </g>
     </g>
     <g id="text_15">
      <!-- 1600 -->
      <g transform="translate(21.55 83.553065)scale(0.1 -0.1)">
       <use xlink:href="#DejaVuSans-49"/>
       <use x="63.623047" xlink:href="#DejaVuSans-54"/>
       <use x="127.246094" xlink:href="#DejaVuSans-48"/>
       <use x="190.869141" xlink:href="#DejaVuSans-48"/>
      </g>
     </g>
    </g>
    <g id="ytick_7">
     <g id="line2d_16">
      <g>
       <use style="stroke:#000000;stroke-width:0.8;" x="54" xlink:href="#mec740a08c6" y="49.624615"/>
      </g>
     </g>
     <g id="text_16">
      <!-- 1800 -->
      <g transform="translate(21.55 53.423834)scale(0.1 -0.1)">
       <use xlink:href="#DejaVuSans-49"/>
       <use x="63.623047" xlink:href="#DejaVuSans-56"/>
       <use x="127.246094" xlink:href="#DejaVuSans-48"/>
       <use x="190.869141" xlink:href="#DejaVuSans-48"/>
      </g>
     </g>
    </g>
   </g>
   <g id="line2d_17">
    <path clip-path="url(#p835f31ba7b)" d="M 53.312526 107.126252 
L 54.458316 107.382351 
L 54.687474 107.120226 
L 54.916632 108.420303 
L 55.604107 107.94878 
L 55.833265 108.058752 
L 56.062423 107.645982 
L 56.520739 105.253721 
L 57.437372 105.077465 
L 57.66653 105.270292 
L 57.895688 105.910538 
L 58.124846 105.288369 
L 58.81232 106.425748 
L 59.041478 105.666491 
L 59.270637 103.837647 
L 59.499795 106.282634 
L 59.728953 106.541745 
L 60.416427 106.776753 
L 61.103901 102.962393 
L 61.33306 102.59331 
L 62.020534 102.804214 
L 62.249692 102.652062 
L 62.47885 102.347756 
L 62.708008 102.605361 
L 62.937166 104.149484 
L 63.624641 104.856015 
L 64.082957 101.552345 
L 64.312115 101.324869 
L 64.541273 101.51619 
L 65.457906 100.892514 
L 65.916222 101.389647 
L 66.14538 102.1715 
L 66.832854 102.445676 
L 67.062012 110.027697 
L 67.29117 108.85567 
L 67.520329 109.405529 
L 67.749487 111.815867 
L 68.436961 113.781799 
L 68.666119 110.574543 
L 68.895277 111.092766 
L 69.124435 109.598356 
L 69.353593 109.455242 
L 70.041068 108.888812 
L 70.270226 113.204825 
L 70.728542 111.046065 
L 70.9577 111.849009 
L 71.645175 109.572746 
L 71.874333 108.235008 
L 72.103491 104.604436 
L 72.332649 104.679759 
L 72.561807 104.443244 
L 73.249281 104.233846 
L 73.707598 107.287444 
L 73.936756 106.489019 
L 74.165914 106.740598 
L 74.853388 106.184714 
L 75.082546 104.193172 
L 75.311704 103.952138 
L 75.540862 103.290801 
L 76.457495 103.162752 
L 76.686653 102.59331 
L 76.915811 104.027461 
L 77.374127 101.921428 
L 78.29076 99.11489 
L 78.519918 98.961231 
L 78.749076 99.227874 
L 78.978234 97.176074 
L 79.894867 97.76962 
L 80.124025 95.508421 
L 80.353183 95.684677 
L 80.582341 95.711793 
L 81.269815 97.474353 
L 81.498973 96.882314 
L 81.95729 94.458417 
L 82.186448 93.97183 
L 82.873922 93.390336 
L 83.10308 93.655473 
L 83.332238 92.923333 
L 83.561396 96.103473 
L 83.790554 93.937182 
L 84.478029 94.343926 
L 84.707187 94.639193 
L 84.936345 92.688325 
L 85.165503 92.897723 
L 85.394661 91.391262 
L 86.082136 91.037243 
L 86.540452 91.462065 
L 86.76961 93.687109 
L 86.998768 92.448798 
L 87.9154 92.09026 
L 88.144559 90.264428 
L 88.373717 90.205676 
L 88.602875 89.34398 
L 89.290349 88.916145 
L 89.519507 90.155963 
L 89.748665 92.200231 
L 89.977823 96.216458 
L 90.206982 93.663006 
L 90.894456 93.444569 
L 91.123614 95.872985 
L 91.352772 92.457836 
L 91.811088 89.860697 
L 92.498563 90.140898 
L 92.727721 89.741686 
L 92.956879 92.884165 
L 93.186037 91.475623 
L 93.415195 94.432807 
L 94.102669 95.158922 
L 94.331828 95.889556 
L 94.560986 93.863365 
L 94.790144 93.958272 
L 95.019302 94.313797 
L 95.935934 91.071892 
L 96.394251 90.992049 
L 96.623409 90.232793 
L 97.310883 90.020382 
L 97.540041 93.293922 
L 97.769199 91.99234 
L 97.998357 87.63264 
L 98.227515 86.909538 
L 99.144148 87.381061 
L 99.373306 87.863129 
L 99.602464 86.822164 
L 99.831622 89.681428 
L 100.519097 88.556101 
L 100.748255 93.155328 
L 100.977413 92.093273 
L 101.435729 101.002486 
L 102.123203 98.74882 
L 102.352361 101.556864 
L 102.810678 99.006425 
L 103.039836 104.902715 
L 103.956468 98.32701 
L 104.185626 95.196583 
L 104.414784 101.885273 
L 104.643943 101.802417 
L 105.331417 101.910882 
L 105.789733 108.873748 
L 106.018891 108.185295 
L 106.248049 102.962393 
L 106.935524 103.021145 
L 107.164682 102.78463 
L 107.39384 100.231178 
L 107.622998 100.467692 
L 107.852156 97.926292 
L 108.53963 99.82142 
L 108.768789 105.008167 
L 108.997947 100.277878 
L 109.227105 101.199833 
L 109.456263 98.736768 
L 110.372895 96.412298 
L 110.602053 98.992866 
L 110.831211 98.049822 
L 111.06037 101.815975 
L 111.747844 102.094671 
L 111.977002 99.113383 
L 112.20616 99.102838 
L 112.435318 97.236332 
L 112.664476 97.191138 
L 113.351951 98.336049 
L 113.581109 91.838681 
L 113.810267 90.445204 
L 114.039425 91.993846 
L 114.268583 90.939323 
L 114.956057 92.147505 
L 115.185216 92.225841 
L 115.643532 90.091185 
L 115.87269 90.788677 
L 116.560164 87.732066 
L 116.789322 87.793831 
L 117.01848 88.85438 
L 117.247639 88.36478 
L 117.476797 86.14275 
L 118.164271 86.897487 
L 118.393429 85.003865 
L 118.622587 85.407596 
L 118.851745 86.621804 
L 119.080903 85.508529 
L 119.768378 87.480487 
L 119.997536 89.014065 
L 120.226694 88.605814 
L 120.455852 88.780564 
L 120.68501 94.723554 
L 121.372485 93.864871 
L 121.601643 91.867303 
L 121.830801 92.426201 
L 122.059959 92.649157 
L 122.289117 89.503665 
L 122.976591 88.644982 
L 123.205749 90.145418 
L 123.434908 87.379554 
L 123.664066 93.547008 
L 123.893224 93.364726 
L 124.580698 94.491559 
L 124.809856 91.764864 
L 125.039014 98.491215 
L 125.268172 98.619264 
L 125.497331 101.793378 
L 126.184805 103.980761 
L 126.413963 97.673206 
L 126.643121 99.250471 
L 126.872279 102.177526 
L 127.101437 101.034122 
L 127.788912 104.871079 
L 128.01807 103.902425 
L 128.247228 107.356741 
L 128.705544 103.751778 
L 129.393018 108.795412 
L 129.622177 105.630336 
L 129.851335 99.485479 
L 130.080493 99.380027 
L 130.309651 97.659648 
L 130.997125 98.973282 
L 131.226283 100.424005 
L 131.6846 93.712719 
L 131.913758 94.11645 
L 132.601232 92.414149 
L 132.83039 98.185403 
L 133.059548 96.838626 
L 133.288706 96.56445 
L 133.517864 99.646671 
L 134.205339 102.968418 
L 134.434497 101.600551 
L 134.663655 101.898831 
L 134.892813 100.82623 
L 135.121971 97.159503 
L 135.809446 95.353255 
L 136.267762 95.170974 
L 136.49692 98.393295 
L 136.726078 98.05886 
L 137.413552 99.584906 
L 137.871869 102.778604 
L 138.101027 102.778604 
L 138.330185 108.131062 
L 139.017659 107.445622 
L 139.246817 111.360916 
L 139.705133 106.820441 
L 139.934292 109.729418 
L 140.621766 107.435077 
L 140.850924 112.752886 
L 141.080082 113.920394 
L 141.30924 119.938708 
L 141.538398 121.152916 
L 142.455031 123.365908 
L 142.684189 119.132751 
L 142.913347 117.103547 
L 143.142505 120.336414 
L 144.059138 115.562437 
L 144.288296 116.54013 
L 144.746612 110.573036 
L 145.434086 112.77247 
L 145.663244 119.428017 
L 145.892402 120.963102 
L 146.121561 119.387343 
L 146.350719 120.233974 
L 147.038193 119.052908 
L 147.267351 117.587121 
L 147.496509 114.822764 
L 147.725667 117.587121 
L 147.954825 117.416891 
L 148.871458 117.599173 
L 149.100616 115.904404 
L 149.329774 118.540711 
L 149.558932 116.946875 
L 150.246407 114.131298 
L 150.475565 112.701666 
L 150.704723 112.892987 
L 150.933881 114.751961 
L 151.163039 120.333401 
L 151.850513 120.226442 
L 152.079671 120.917908 
L 152.30883 119.870917 
L 152.537988 124.293888 
L 152.767146 125.946476 
L 153.45462 128.959399 
L 153.683778 121.836849 
L 153.912936 123.626526 
L 154.142094 122.61569 
L 154.371253 126.734356 
L 155.058727 128.472812 
L 155.287885 120.31683 
L 155.517043 125.185713 
L 155.746201 120.502124 
L 156.891992 116.964953 
L 157.579466 122.654858 
L 158.26694 121.528025 
L 158.496099 114.375345 
L 158.725257 114.774558 
L 159.183573 114.342203 
L 159.871047 114.01982 
L 160.100205 115.074343 
L 160.329363 116.738983 
L 160.558522 115.826068 
L 160.78768 120.001979 
L 161.475154 120.681393 
L 161.704312 119.760945 
L 161.93347 115.19938 
L 162.162628 115.07133 
L 162.391786 111.339825 
L 163.079261 111.665221 
L 163.308419 113.507623 
L 163.537577 112.906545 
L 163.995893 110.208473 
L 164.683368 110.429922 
L 165.141684 112.053888 
L 165.370842 108.476042 
L 165.6 107.789095 
L 166.287474 108.754737 
L 166.516632 107.132278 
L 166.745791 111.002378 
L 166.974949 110.232576 
L 167.204107 111.64865 
L 167.891581 109.343764 
L 168.120739 109.425113 
L 168.349897 108.578481 
L 168.579055 106.332347 
L 168.808214 106.064197 
L 169.495688 105.87137 
L 169.724846 107.864418 
L 169.954004 111.28258 
L 170.183162 110.734228 
L 170.41232 113.50913 
L 171.328953 112.090043 
L 172.016427 109.825831 
L 172.703901 112.041836 
L 172.93306 113.250018 
L 173.162218 113.317809 
L 173.391376 109.27296 
L 173.620534 115.806484 
L 174.308008 115.643786 
L 174.537166 116.143931 
L 174.766324 119.60126 
L 174.995483 118.94143 
L 175.224641 115.904404 
L 175.912115 115.887833 
L 176.370431 119.251761 
L 176.599589 118.495518 
L 176.828747 122.246607 
L 177.516222 122.236062 
L 177.74538 122.794959 
L 177.974538 121.637996 
L 178.203696 127.48608 
L 178.432854 128.204662 
L 179.120329 127.960615 
L 179.349487 127.220943 
L 179.578645 130.744556 
L 179.807803 130.536665 
L 180.724435 132.132007 
L 180.953593 128.909686 
L 181.182752 133.279931 
L 181.41191 131.96931 
L 181.641068 134.063291 
L 182.328542 135.749022 
L 182.5577 137.766174 
L 182.786858 133.178998 
L 183.016016 130.925332 
L 183.245175 130.871099 
L 183.932649 130.973538 
L 184.161807 128.412554 
L 184.390965 127.6307 
L 184.620123 132.097359 
L 184.849281 131.310986 
L 185.536756 134.834599 
L 185.995072 127.318863 
L 186.22423 129.86177 
L 186.453388 130.926838 
L 187.140862 132.62914 
L 187.370021 127.225462 
L 187.599179 126.576177 
L 187.828337 130.059116 
L 188.057495 125.50207 
L 188.744969 124.146255 
L 188.974127 126.515919 
L 189.203285 127.082348 
L 189.661602 125.218855 
L 190.349076 128.17152 
L 190.578234 129.965716 
L 190.807392 128.783143 
L 191.03655 128.304089 
L 191.265708 126.122732 
L 191.953183 129.943119 
L 192.182341 129.239601 
L 192.411499 127.710543 
L 192.640657 124.845253 
L 192.869815 127.534287 
L 193.786448 128.325179 
L 194.015606 128.716859 
L 194.244764 134.46401 
L 194.473922 133.638469 
L 195.161396 129.800005 
L 195.390554 136.31997 
L 195.619713 135.185605 
L 195.848871 132.623114 
L 196.078029 132.223902 
L 196.765503 141.112025 
L 196.994661 137.96352 
L 197.223819 146.581986 
L 197.682136 131.714718 
L 198.598768 141.786919 
L 198.827926 142.140938 
L 199.057084 138.629376 
L 199.286242 138.013233 
L 199.973717 154.109775 
L 200.202875 145.080044 
L 200.432033 145.878469 
L 200.661191 152.925696 
L 201.577823 161.571279 
L 201.806982 170.709474 
L 202.03614 172.41027 
L 202.265298 183.711744 
L 202.494456 185.323658 
L 203.18193 169.636874 
L 203.411088 170.441324 
L 203.640246 184.025088 
L 203.869405 178.211653 
L 204.098563 179.097452 
L 204.786037 172.340972 
L 205.015195 176.913083 
L 205.244353 185.691234 
L 205.473511 183.984414 
L 205.702669 188.705664 
L 206.390144 192.901159 
L 206.619302 179.103478 
L 206.84846 180.673211 
L 207.306776 174.849231 
L 207.994251 175.218314 
L 208.223409 169.275323 
L 208.681725 184.471001 
L 208.910883 180.53763 
L 209.598357 182.312241 
L 209.827515 185.364332 
L 210.056674 192.391975 
L 210.285832 183.505359 
L 210.51499 189.229913 
L 211.202464 192.625477 
L 211.431622 191.364569 
L 211.889938 207.4355 
L 212.119097 200.26625 
L 212.806571 192.465792 
L 213.035729 191.625186 
L 213.264887 187.062114 
L 213.723203 185.772583 
L 214.410678 197.828795 
L 214.868994 189.61406 
L 215.098152 193.45855 
L 215.32731 188.811116 
L 216.014784 183.744886 
L 216.243943 186.912975 
L 216.473101 185.320645 
L 216.702259 189.184719 
L 216.931417 188.259751 
L 217.618891 189.940962 
L 217.848049 183.220638 
L 218.077207 184.540298 
L 218.306366 187.423665 
L 218.535524 187.031985 
L 219.222998 189.479985 
L 219.452156 190.755958 
L 219.681314 190.004234 
L 220.13963 189.303729 
L 220.827105 189.812913 
L 221.285421 184.716554 
L 221.743737 180.415606 
L 222.431211 181.070917 
L 222.66037 179.978732 
L 222.889528 184.204357 
L 223.118686 183.740367 
L 223.347844 186.659889 
L 224.035318 189.68637 
L 224.264476 189.455882 
L 224.493634 193.85023 
L 224.722793 193.681506 
L 224.951951 192.720384 
L 225.868583 199.484396 
L 226.097741 194.208768 
L 226.326899 196.128 
L 226.556057 195.457625 
L 227.243532 194.761639 
L 227.47269 193.384734 
L 227.701848 189.109396 
L 228.160164 196.372047 
L 228.847639 196.438331 
L 229.076797 194.469386 
L 229.305955 195.415444 
L 229.535113 193.363643 
L 229.764271 189.936443 
L 230.451745 189.74211 
L 230.680903 196.17922 
L 230.910062 195.187968 
L 231.13922 194.969531 
L 231.368378 196.227426 
L 232.28501 201.902267 
L 232.514168 202.015252 
L 233.659959 208.807887 
L 233.889117 204.317125 
L 234.347433 207.376748 
L 234.576591 210.049211 
L 235.264066 215.211855 
L 235.493224 215.888256 
L 235.722382 213.396569 
L 235.95154 217.96416 
L 236.180698 217.839124 
L 236.868172 218.87105 
L 237.097331 212.38272 
L 237.326489 212.117583 
L 237.555647 207.691599 
L 237.784805 206.816345 
L 238.472279 207.217063 
L 238.930595 201.12192 
L 239.159754 202.675082 
L 239.388912 205.010097 
L 240.076386 196.817959 
L 240.305544 199.348815 
L 240.534702 198.179801 
L 240.76386 195.320537 
L 240.993018 197.86947 
L 241.680493 202.149327 
L 242.138809 198.60161 
L 242.367967 195.091554 
L 242.597125 193.868308 
L 243.2846 194.925844 
L 243.513758 197.928222 
L 243.742916 196.480512 
L 243.972074 191.750223 
L 244.888706 191.423321 
L 245.117864 194.018954 
L 245.805339 189.785797 
L 246.492813 195.39134 
L 246.721971 192.72641 
L 246.951129 193.710129 
L 247.180287 192.449221 
L 247.409446 190.293474 
L 248.326078 191.961127 
L 248.555236 189.177186 
L 248.784394 189.302223 
L 249.013552 188.592679 
L 249.701027 184.115476 
L 249.930185 184.633698 
L 250.159343 182.264034 
L 250.388501 184.092879 
L 250.617659 180.802767 
L 251.305133 183.814183 
L 251.534292 183.948258 
L 251.76345 187.628544 
L 251.992608 186.250132 
L 252.221766 187.785216 
L 252.90924 183.74338 
L 253.138398 183.981401 
L 253.367556 184.683412 
L 253.596715 186.964194 
L 253.825873 187.164554 
L 254.742505 183.649979 
L 254.971663 186.251638 
L 255.429979 182.322786 
L 256.117454 178.747953 
L 256.346612 178.466245 
L 256.57577 180.421632 
L 256.804928 178.809718 
L 257.034086 179.16675 
L 257.721561 179.309863 
L 257.950719 178.814238 
L 258.179877 179.308357 
L 258.409035 178.443648 
L 258.638193 178.244795 
L 259.325667 181.632827 
L 259.554825 183.402919 
L 259.783984 183.592734 
L 260.013142 182.438784 
L 260.2423 182.007936 
L 260.929774 186.254651 
L 261.158932 185.94432 
L 261.38809 185.064546 
L 261.617248 182.154063 
L 261.846407 182.358942 
L 262.533881 181.104059 
L 262.763039 182.29567 
L 262.992197 181.691579 
L 263.221355 185.745467 
L 264.137988 185.398981 
L 264.367146 188.063911 
L 264.596304 188.285361 
L 264.825462 187.815345 
L 265.05462 188.350139 
L 265.971253 184.32638 
L 266.200411 180.283038 
L 266.429569 179.06883 
L 266.658727 179.123062 
L 267.575359 176.983887 
L 267.804517 177.060716 
L 268.033676 173.713359 
L 268.262834 173.26594 
L 268.950308 172.826053 
L 269.179466 173.211707 
L 269.408624 173.885095 
L 269.637782 172.1376 
L 269.86694 172.027628 
L 270.783573 169.290388 
L 271.012731 169.731781 
L 271.241889 170.581425 
L 271.471047 168.562767 
L 272.158522 169.071951 
L 272.38768 170.992689 
L 272.845996 168.223813 
L 273.762628 173.195136 
L 274.450103 169.031276 
L 274.679261 166.205154 
L 275.366735 166.289516 
L 275.595893 165.923446 
L 275.825051 165.905369 
L 276.054209 165.474521 
L 276.283368 165.783345 
L 276.970842 167.035215 
L 277.2 170.436805 
L 277.429158 170.932431 
L 277.658316 169.653445 
L 277.887474 167.670942 
L 278.804107 166.316633 
L 279.262423 163.492017 
L 279.491581 163.704428 
L 280.408214 162.213031 
L 280.637372 159.783109 
L 280.86653 160.275722 
L 281.095688 159.852406 
L 281.783162 160.400758 
L 282.01232 159.346235 
L 282.699795 163.455862 
L 283.387269 160.653844 
L 283.845585 161.542656 
L 284.074743 165.644751 
L 284.303901 166.343749 
L 284.991376 164.046395 
L 285.220534 161.898181 
L 285.449692 161.467333 
L 285.908008 159.371845 
L 286.595483 158.663808 
L 286.824641 159.115746 
L 287.053799 156.279079 
L 287.282957 155.595146 
L 287.512115 156.932884 
L 288.199589 155.391774 
L 288.657906 157.878942 
L 288.887064 156.145004 
L 289.116222 158.150105 
L 290.032854 160.589066 
L 290.262012 163.719493 
L 290.49117 160.182321 
L 290.720329 164.689654 
L 291.866119 163.136492 
L 292.095277 160.103985 
L 292.324435 159.70176 
L 293.01191 156.119394 
L 293.241068 156.12994 
L 293.470226 155.301386 
L 293.699384 156.999168 
L 294.616016 153.675914 
L 294.845175 153.522255 
L 295.074333 153.600591 
L 295.303491 155.845218 
L 295.532649 156.375493 
L 296.220123 154.136891 
L 296.449281 154.225772 
L 296.678439 153.475554 
L 297.136756 156.358922 
L 297.82423 155.735247 
L 298.053388 153.742198 
L 298.282546 153.684953 
L 298.511704 155.088975 
L 298.740862 154.176059 
L 299.428337 154.587323 
L 299.657495 156.291131 
L 299.886653 155.68704 
L 300.344969 154.111281 
L 301.032444 152.951306 
L 301.261602 153.882299 
L 301.49076 153.693991 
L 301.719918 155.667456 
L 301.949076 154.704827 
L 303.324025 151.087813 
L 304.240657 150.891973 
L 304.469815 151.129994 
L 304.698973 151.096852 
L 304.928131 152.802166 
L 306.073922 149.575326 
L 306.30308 149.481925 
L 306.761396 148.300859 
L 307.448871 147.999567 
L 307.678029 149.620519 
L 307.907187 148.195407 
L 308.136345 147.77661 
L 308.365503 149.649142 
L 309.282136 147.509967 
L 309.511294 149.346343 
L 309.96961 156.318247 
L 310.657084 155.562004 
L 310.886242 156.256482 
L 311.1154 155.453538 
L 311.573717 159.013307 
L 312.261191 156.705408 
L 312.490349 154.576778 
L 312.719507 155.486681 
L 312.948665 160.63426 
L 313.177823 160.17027 
L 313.865298 161.593876 
L 314.094456 159.517972 
L 314.323614 159.878016 
L 314.552772 158.320335 
L 314.78193 158.766247 
L 316.386037 153.695498 
L 317.073511 153.870247 
L 317.302669 155.890412 
L 317.531828 154.287537 
L 317.760986 154.634023 
L 317.990144 154.400522 
L 318.906776 152.318592 
L 319.135934 152.246282 
L 319.365092 151.616581 
L 319.594251 149.246917 
L 320.281725 149.277046 
L 320.510883 148.983286 
L 320.969199 147.50846 
L 321.198357 147.546122 
L 321.885832 147.467786 
L 322.344148 145.102641 
L 322.573306 145.159887 
L 322.802464 146.053218 
L 323.489938 145.1629 
L 323.719097 143.903498 
L 323.948255 144.875166 
L 324.177413 145.174951 
L 324.406571 145.045396 
L 325.094045 144.046612 
L 325.323203 144.039079 
L 325.552361 144.617561 
L 325.78152 143.311458 
L 326.92731 141.603131 
L 327.156468 142.656148 
L 327.385626 142.05507 
L 327.614784 140.860446 
L 328.531417 140.419052 
L 328.760575 138.407926 
L 328.989733 138.254267 
L 329.218891 141.197893 
L 329.906366 140.38591 
L 330.135524 138.932175 
L 330.364682 139.11747 
L 330.59384 138.706206 
L 330.822998 137.409142 
L 331.510472 138.197022 
L 331.73963 142.466334 
L 331.968789 141.31389 
L 332.197947 138.990927 
L 332.427105 142.017408 
L 333.114579 139.671847 
L 333.343737 143.989366 
L 333.572895 145.153861 
L 333.802053 150.836234 
L 334.031211 153.437893 
L 334.718686 146.078828 
L 334.947844 146.672374 
L 335.177002 144.280113 
L 335.40616 146.423808 
L 335.635318 149.701868 
L 336.322793 149.512054 
L 336.551951 151.943483 
L 336.781109 152.809698 
L 337.010267 159.35678 
L 337.239425 156.931377 
L 337.926899 159.046449 
L 338.156057 158.989204 
L 338.385216 159.905132 
L 338.614374 154.615946 
L 338.843532 156.672266 
L 339.760164 159.489349 
L 339.989322 155.32097 
L 340.21848 154.650594 
L 340.447639 160.367616 
L 341.135113 162.538427 
L 341.364271 160.801477 
L 341.593429 161.752054 
L 341.822587 157.059426 
L 342.051745 156.342351 
L 342.73922 156.639124 
L 342.968378 152.782582 
L 343.197536 152.875983 
L 343.655852 152.439109 
L 344.343326 153.088394 
L 344.572485 155.783454 
L 344.801643 156.276066 
L 345.030801 159.040423 
L 345.259959 158.57794 
L 345.947433 158.907855 
L 346.176591 163.928891 
L 346.405749 165.515195 
L 346.864066 166.739948 
L 347.780698 165.914407 
L 348.009856 161.062095 
L 348.468172 158.397164 
L 349.155647 158.278154 
L 349.384805 155.778934 
L 349.613963 155.804544 
L 349.843121 155.607198 
L 350.072279 160.367616 
L 350.759754 159.408 
L 350.988912 157.565598 
L 351.21807 159.658073 
L 351.447228 156.030513 
L 351.676386 154.676204 
L 352.36386 152.815724 
L 352.593018 152.99198 
L 353.051335 154.846434 
L 353.280493 154.835889 
L 353.967967 151.181214 
L 354.197125 151.994703 
L 354.426283 150.973322 
L 354.655441 151.188746 
L 354.8846 151.81694 
L 355.572074 150.890466 
L 355.801232 151.904315 
L 356.03039 156.663227 
L 356.488706 158.202831 
L 357.176181 158.183247 
L 357.405339 156.200743 
L 357.634497 155.956697 
L 357.863655 158.74817 
L 358.092813 159.341716 
L 358.780287 159.994014 
L 359.009446 162.327522 
L 359.238604 161.806287 
L 359.467762 163.028027 
L 359.69692 160.411303 
L 360.384394 162.771929 
L 360.613552 162.710164 
L 360.84271 158.046159 
L 361.301027 154.397509 
L 362.217659 156.306196 
L 362.905133 153.638252 
L 363.592608 151.777772 
L 363.821766 151.898289 
L 364.050924 151.300224 
L 364.280082 151.361989 
L 364.50924 151.221888 
L 365.196715 148.642826 
L 365.425873 149.084219 
L 365.655031 149.912773 
L 365.884189 151.336379 
L 366.113347 147.744975 
L 366.800821 148.725681 
L 367.029979 147.891102 
L 367.488296 148.870302 
L 367.717454 148.111045 
L 368.404928 149.498496 
L 368.634086 145.925169 
L 368.863244 146.042673 
L 369.092402 146.330407 
L 369.321561 145.262326 
L 370.009035 145.236716 
L 370.238193 144.566341 
L 370.467351 143.311458 
L 370.696509 143.95773 
L 370.925667 143.599193 
L 371.613142 142.315687 
L 371.8423 145.149342 
L 372.071458 143.300913 
L 372.529774 142.561241 
L 373.446407 142.175586 
L 373.675565 142.656148 
L 373.904723 142.455788 
L 374.133881 142.534124 
L 374.821355 142.365401 
L 375.050513 140.980962 
L 375.279671 140.319626 
L 375.50883 136.8397 
L 375.737988 136.118105 
L 376.425462 136.509785 
L 376.65462 137.993649 
L 376.883778 137.193718 
L 377.112936 137.972559 
L 377.342094 140.131318 
L 378.029569 140.351262 
L 378.258727 143.275303 
L 378.487885 143.237642 
L 378.717043 140.510946 
L 378.946201 140.052982 
L 379.633676 140.337703 
L 379.862834 142.915259 
L 380.091992 140.260874 
L 380.550308 141.609157 
L 381.237782 141.856217 
L 381.46694 142.942375 
L 381.925257 136.768896 
L 382.154415 136.289841 
L 382.841889 136.529369 
L 383.071047 136.434462 
L 383.529363 135.040985 
L 383.758522 133.926203 
L 384.445996 133.917164 
L 384.675154 133.746934 
L 384.904312 134.705044 
L 385.13347 133.554107 
L 386.050103 132.919887 
L 386.508419 131.148288 
L 386.737577 131.460126 
L 387.654209 131.344128 
L 388.112526 131.006681 
L 388.341684 131.292908 
L 388.570842 131.329063 
L 389.258316 129.185369 
L 389.258316 129.185369 
" style="fill:none;stroke:#000000;stroke-linecap:square;stroke-width:1.5;"/>
   </g>
   <g id="patch_3">
    <path d="M 54 230.4 
L 54 34.56 
" style="fill:none;stroke:#000000;stroke-linecap:square;stroke-linejoin:miter;stroke-width:0.8;"/>
   </g>
   <g id="patch_4">
    <path d="M 388.8 230.4 
L 388.8 34.56 
" style="fill:none;stroke:#000000;stroke-linecap:square;stroke-linejoin:miter;stroke-width:0.8;"/>
   </g>
   <g id="patch_5">
    <path d="M 54 230.4 
L 388.8 230.4 
" style="fill:none;stroke:#000000;stroke-linecap:square;stroke-linejoin:miter;stroke-width:0.8;"/>
   </g>
   <g id="patch_6">
    <path d="M 54 34.56 
L 388.8 34.56 
" style="fill:none;stroke:#000000;stroke-linecap:square;stroke-linejoin:miter;stroke-width:0.8;"/>
   </g>
   <g id="patch_7">
    <path d="M 120.851745 53.10441 
Q 120.851745 60.097101 120.851745 67.089792 
L 124.851745 67.089792 
Q 121.851745 73.089644 118.851745 79.089497 
Q 115.851745 73.089644 112.851745 67.089792 
L 116.851745 67.089792 
Q 116.851745 60.097101 116.851745 53.10441 
L 120.851745 53.10441 
z
" style="fill:#ff0000;stroke:#000000;stroke-linecap:round;"/>
   </g>
   <g id="text_17">
    <!-- Peak of bull market -->
    <defs>
     <path d="M 19.671875 64.796875 
L 19.671875 37.40625 
L 32.078125 37.40625 
Q 38.96875 37.40625 42.71875 40.96875 
Q 46.484375 44.53125 46.484375 51.125 
Q 46.484375 57.671875 42.71875 61.234375 
Q 38.96875 64.796875 32.078125 64.796875 
z
M 9.8125 72.90625 
L 32.078125 72.90625 
Q 44.34375 72.90625 50.609375 67.359375 
Q 56.890625 61.8125 56.890625 51.125 
Q 56.890625 40.328125 50.609375 34.8125 
Q 44.34375 29.296875 32.078125 29.296875 
L 19.671875 29.296875 
L 19.671875 0 
L 9.8125 0 
z
" id="DejaVuSans-80"/>
     <path d="M 56.203125 29.59375 
L 56.203125 25.203125 
L 14.890625 25.203125 
Q 15.484375 15.921875 20.484375 11.0625 
Q 25.484375 6.203125 34.421875 6.203125 
Q 39.59375 6.203125 44.453125 7.46875 
Q 49.3125 8.734375 54.109375 11.28125 
L 54.109375 2.78125 
Q 49.265625 0.734375 44.1875 -0.34375 
Q 39.109375 -1.421875 33.890625 -1.421875 
Q 20.796875 -1.421875 13.15625 6.1875 
Q 5.515625 13.8125 5.515625 26.8125 
Q 5.515625 40.234375 12.765625 48.109375 
Q 20.015625 56 32.328125 56 
Q 43.359375 56 49.78125 48.890625 
Q 56.203125 41.796875 56.203125 29.59375 
z
M 47.21875 32.234375 
Q 47.125 39.59375 43.09375 43.984375 
Q 39.0625 48.390625 32.421875 48.390625 
Q 24.90625 48.390625 20.390625 44.140625 
Q 15.875 39.890625 15.1875 32.171875 
z
" id="DejaVuSans-101"/>
     <path d="M 34.28125 27.484375 
Q 23.390625 27.484375 19.1875 25 
Q 14.984375 22.515625 14.984375 16.5 
Q 14.984375 11.71875 18.140625 8.90625 
Q 21.296875 6.109375 26.703125 6.109375 
Q 34.1875 6.109375 38.703125 11.40625 
Q 43.21875 16.703125 43.21875 25.484375 
L 43.21875 27.484375 
z
M 52.203125 31.203125 
L 52.203125 0 
L 43.21875 0 
L 43.21875 8.296875 
Q 40.140625 3.328125 35.546875 0.953125 
Q 30.953125 -1.421875 24.3125 -1.421875 
Q 15.921875 -1.421875 10.953125 3.296875 
Q 6 8.015625 6 15.921875 
Q 6 25.140625 12.171875 29.828125 
Q 18.359375 34.515625 30.609375 34.515625 
L 43.21875 34.515625 
L 43.21875 35.40625 
Q 43.21875 41.609375 39.140625 45 
Q 35.0625 48.390625 27.6875 48.390625 
Q 23 48.390625 18.546875 47.265625 
Q 14.109375 46.140625 10.015625 43.890625 
L 10.015625 52.203125 
Q 14.9375 54.109375 19.578125 55.046875 
Q 24.21875 56 28.609375 56 
Q 40.484375 56 46.34375 49.84375 
Q 52.203125 43.703125 52.203125 31.203125 
z
" id="DejaVuSans-97"/>
     <path d="M 9.078125 75.984375 
L 18.109375 75.984375 
L 18.109375 31.109375 
L 44.921875 54.6875 
L 56.390625 54.6875 
L 27.390625 29.109375 
L 57.625 0 
L 45.90625 0 
L 18.109375 26.703125 
L 18.109375 0 
L 9.078125 0 
z
" id="DejaVuSans-107"/>
     <path id="DejaVuSans-32"/>
     <path d="M 30.609375 48.390625 
Q 23.390625 48.390625 19.1875 42.75 
Q 14.984375 37.109375 14.984375 27.296875 
Q 14.984375 17.484375 19.15625 11.84375 
Q 23.34375 6.203125 30.609375 6.203125 
Q 37.796875 6.203125 41.984375 11.859375 
Q 46.1875 17.53125 46.1875 27.296875 
Q 46.1875 37.015625 41.984375 42.703125 
Q 37.796875 48.390625 30.609375 48.390625 
z
M 30.609375 56 
Q 42.328125 56 49.015625 48.375 
Q 55.71875 40.765625 55.71875 27.296875 
Q 55.71875 13.875 49.015625 6.21875 
Q 42.328125 -1.421875 30.609375 -1.421875 
Q 18.84375 -1.421875 12.171875 6.21875 
Q 5.515625 13.875 5.515625 27.296875 
Q 5.515625 40.765625 12.171875 48.375 
Q 18.84375 56 30.609375 56 
z
" id="DejaVuSans-111"/>
     <path d="M 37.109375 75.984375 
L 37.109375 68.5 
L 28.515625 68.5 
Q 23.6875 68.5 21.796875 66.546875 
Q 19.921875 64.59375 19.921875 59.515625 
L 19.921875 54.6875 
L 34.71875 54.6875 
L 34.71875 47.703125 
L 19.921875 47.703125 
L 19.921875 0 
L 10.890625 0 
L 10.890625 47.703125 
L 2.296875 47.703125 
L 2.296875 54.6875 
L 10.890625 54.6875 
L 10.890625 58.5 
Q 10.890625 67.625 15.140625 71.796875 
Q 19.390625 75.984375 28.609375 75.984375 
z
" id="DejaVuSans-102"/>
     <path d="M 48.6875 27.296875 
Q 48.6875 37.203125 44.609375 42.84375 
Q 40.53125 48.484375 33.40625 48.484375 
Q 26.265625 48.484375 22.1875 42.84375 
Q 18.109375 37.203125 18.109375 27.296875 
Q 18.109375 17.390625 22.1875 11.75 
Q 26.265625 6.109375 33.40625 6.109375 
Q 40.53125 6.109375 44.609375 11.75 
Q 48.6875 17.390625 48.6875 27.296875 
z
M 18.109375 46.390625 
Q 20.953125 51.265625 25.265625 53.625 
Q 29.59375 56 35.59375 56 
Q 45.5625 56 51.78125 48.09375 
Q 58.015625 40.1875 58.015625 27.296875 
Q 58.015625 14.40625 51.78125 6.484375 
Q 45.5625 -1.421875 35.59375 -1.421875 
Q 29.59375 -1.421875 25.265625 0.953125 
Q 20.953125 3.328125 18.109375 8.203125 
L 18.109375 0 
L 9.078125 0 
L 9.078125 75.984375 
L 18.109375 75.984375 
z
" id="DejaVuSans-98"/>
     <path d="M 8.5 21.578125 
L 8.5 54.6875 
L 17.484375 54.6875 
L 17.484375 21.921875 
Q 17.484375 14.15625 20.5 10.265625 
Q 23.53125 6.390625 29.59375 6.390625 
Q 36.859375 6.390625 41.078125 11.03125 
Q 45.3125 15.671875 45.3125 23.6875 
L 45.3125 54.6875 
L 54.296875 54.6875 
L 54.296875 0 
L 45.3125 0 
L 45.3125 8.40625 
Q 42.046875 3.421875 37.71875 1 
Q 33.40625 -1.421875 27.6875 -1.421875 
Q 18.265625 -1.421875 13.375 4.4375 
Q 8.5 10.296875 8.5 21.578125 
z
M 31.109375 56 
z
" id="DejaVuSans-117"/>
     <path d="M 9.421875 75.984375 
L 18.40625 75.984375 
L 18.40625 0 
L 9.421875 0 
z
" id="DejaVuSans-108"/>
     <path d="M 52 44.1875 
Q 55.375 50.25 60.0625 53.125 
Q 64.75 56 71.09375 56 
Q 79.640625 56 84.28125 50.015625 
Q 88.921875 44.046875 88.921875 33.015625 
L 88.921875 0 
L 79.890625 0 
L 79.890625 32.71875 
Q 79.890625 40.578125 77.09375 44.375 
Q 74.3125 48.1875 68.609375 48.1875 
Q 61.625 48.1875 57.5625 43.546875 
Q 53.515625 38.921875 53.515625 30.90625 
L 53.515625 0 
L 44.484375 0 
L 44.484375 32.71875 
Q 44.484375 40.625 41.703125 44.40625 
Q 38.921875 48.1875 33.109375 48.1875 
Q 26.21875 48.1875 22.15625 43.53125 
Q 18.109375 38.875 18.109375 30.90625 
L 18.109375 0 
L 9.078125 0 
L 9.078125 54.6875 
L 18.109375 54.6875 
L 18.109375 46.1875 
Q 21.1875 51.21875 25.484375 53.609375 
Q 29.78125 56 35.6875 56 
Q 41.65625 56 45.828125 52.96875 
Q 50 49.953125 52 44.1875 
z
" id="DejaVuSans-109"/>
     <path d="M 41.109375 46.296875 
Q 39.59375 47.171875 37.8125 47.578125 
Q 36.03125 48 33.890625 48 
Q 26.265625 48 22.1875 43.046875 
Q 18.109375 38.09375 18.109375 28.8125 
L 18.109375 0 
L 9.078125 0 
L 9.078125 54.6875 
L 18.109375 54.6875 
L 18.109375 46.1875 
Q 20.953125 51.171875 25.484375 53.578125 
Q 30.03125 56 36.53125 56 
Q 37.453125 56 38.578125 55.875 
Q 39.703125 55.765625 41.0625 55.515625 
z
" id="DejaVuSans-114"/>
     <path d="M 18.3125 70.21875 
L 18.3125 54.6875 
L 36.8125 54.6875 
L 36.8125 47.703125 
L 18.3125 47.703125 
L 18.3125 18.015625 
Q 18.3125 11.328125 20.140625 9.421875 
Q 21.96875 7.515625 27.59375 7.515625 
L 36.8125 7.515625 
L 36.8125 0 
L 27.59375 0 
Q 17.1875 0 13.234375 3.875 
Q 9.28125 7.765625 9.28125 18.015625 
L 9.28125 47.703125 
L 2.6875 47.703125 
L 2.6875 54.6875 
L 9.28125 54.6875 
L 9.28125 70.21875 
z
" id="DejaVuSans-116"/>
    </defs>
    <g transform="translate(118.851745 49.026396)scale(0.1 -0.1)">
     <use xlink:href="#DejaVuSans-80"/>
     <use x="60.255859" xlink:href="#DejaVuSans-101"/>
     <use x="121.779297" xlink:href="#DejaVuSans-97"/>
     <use x="183.058594" xlink:href="#DejaVuSans-107"/>
     <use x="240.96875" xlink:href="#DejaVuSans-32"/>
     <use x="272.755859" xlink:href="#DejaVuSans-111"/>
     <use x="333.9375" xlink:href="#DejaVuSans-102"/>
     <use x="369.142578" xlink:href="#DejaVuSans-32"/>
     <use x="400.929688" xlink:href="#DejaVuSans-98"/>
     <use x="464.40625" xlink:href="#DejaVuSans-117"/>
     <use x="527.785156" xlink:href="#DejaVuSans-108"/>
     <use x="555.568359" xlink:href="#DejaVuSans-108"/>
     <use x="583.351562" xlink:href="#DejaVuSans-32"/>
     <use x="615.138672" xlink:href="#DejaVuSans-109"/>
     <use x="712.550781" xlink:href="#DejaVuSans-97"/>
     <use x="773.830078" xlink:href="#DejaVuSans-114"/>
     <use x="814.943359" xlink:href="#DejaVuSans-107"/>
     <use x="872.806641" xlink:href="#DejaVuSans-101"/>
     <use x="934.330078" xlink:href="#DejaVuSans-116"/>
    </g>
   </g>
   <g id="patch_8">
    <path d="M 155.912936 90.109132 
Q 155.912936 97.101822 155.912936 104.094513 
L 159.912936 104.094513 
Q 156.912936 110.094365 153.912936 116.094218 
Q 150.912936 110.094365 147.912936 104.094513 
L 151.912936 104.094513 
Q 151.912936 97.101822 151.912936 90.109132 
L 155.912936 90.109132 
z
" style="fill:#ff0000;stroke:#000000;stroke-linecap:round;"/>
   </g>
   <g id="text_18">
    <!-- Bear Stearns Fails -->
    <defs>
     <path d="M 19.671875 34.8125 
L 19.671875 8.109375 
L 35.5 8.109375 
Q 43.453125 8.109375 47.28125 11.40625 
Q 51.125 14.703125 51.125 21.484375 
Q 51.125 28.328125 47.28125 31.5625 
Q 43.453125 34.8125 35.5 34.8125 
z
M 19.671875 64.796875 
L 19.671875 42.828125 
L 34.28125 42.828125 
Q 41.5 42.828125 45.03125 45.53125 
Q 48.578125 48.25 48.578125 53.8125 
Q 48.578125 59.328125 45.03125 62.0625 
Q 41.5 64.796875 34.28125 64.796875 
z
M 9.8125 72.90625 
L 35.015625 72.90625 
Q 46.296875 72.90625 52.390625 68.21875 
Q 58.5 63.53125 58.5 54.890625 
Q 58.5 48.1875 55.375 44.234375 
Q 52.25 40.28125 46.1875 39.3125 
Q 53.46875 37.75 57.5 32.78125 
Q 61.53125 27.828125 61.53125 20.40625 
Q 61.53125 10.640625 54.890625 5.3125 
Q 48.25 0 35.984375 0 
L 9.8125 0 
z
" id="DejaVuSans-66"/>
     <path d="M 53.515625 70.515625 
L 53.515625 60.890625 
Q 47.90625 63.578125 42.921875 64.890625 
Q 37.9375 66.21875 33.296875 66.21875 
Q 25.25 66.21875 20.875 63.09375 
Q 16.5 59.96875 16.5 54.203125 
Q 16.5 49.359375 19.40625 46.890625 
Q 22.3125 44.4375 30.421875 42.921875 
L 36.375 41.703125 
Q 47.40625 39.59375 52.65625 34.296875 
Q 57.90625 29 57.90625 20.125 
Q 57.90625 9.515625 50.796875 4.046875 
Q 43.703125 -1.421875 29.984375 -1.421875 
Q 24.8125 -1.421875 18.96875 -0.25 
Q 13.140625 0.921875 6.890625 3.21875 
L 6.890625 13.375 
Q 12.890625 10.015625 18.65625 8.296875 
Q 24.421875 6.59375 29.984375 6.59375 
Q 38.421875 6.59375 43.015625 9.90625 
Q 47.609375 13.234375 47.609375 19.390625 
Q 47.609375 24.75 44.3125 27.78125 
Q 41.015625 30.8125 33.5 32.328125 
L 27.484375 33.5 
Q 16.453125 35.6875 11.515625 40.375 
Q 6.59375 45.0625 6.59375 53.421875 
Q 6.59375 63.09375 13.40625 68.65625 
Q 20.21875 74.21875 32.171875 74.21875 
Q 37.3125 74.21875 42.625 73.28125 
Q 47.953125 72.359375 53.515625 70.515625 
z
" id="DejaVuSans-83"/>
     <path d="M 54.890625 33.015625 
L 54.890625 0 
L 45.90625 0 
L 45.90625 32.71875 
Q 45.90625 40.484375 42.875 44.328125 
Q 39.84375 48.1875 33.796875 48.1875 
Q 26.515625 48.1875 22.3125 43.546875 
Q 18.109375 38.921875 18.109375 30.90625 
L 18.109375 0 
L 9.078125 0 
L 9.078125 54.6875 
L 18.109375 54.6875 
L 18.109375 46.1875 
Q 21.34375 51.125 25.703125 53.5625 
Q 30.078125 56 35.796875 56 
Q 45.21875 56 50.046875 50.171875 
Q 54.890625 44.34375 54.890625 33.015625 
z
" id="DejaVuSans-110"/>
     <path d="M 44.28125 53.078125 
L 44.28125 44.578125 
Q 40.484375 46.53125 36.375 47.5 
Q 32.28125 48.484375 27.875 48.484375 
Q 21.1875 48.484375 17.84375 46.4375 
Q 14.5 44.390625 14.5 40.28125 
Q 14.5 37.15625 16.890625 35.375 
Q 19.28125 33.59375 26.515625 31.984375 
L 29.59375 31.296875 
Q 39.15625 29.25 43.1875 25.515625 
Q 47.21875 21.78125 47.21875 15.09375 
Q 47.21875 7.46875 41.1875 3.015625 
Q 35.15625 -1.421875 24.609375 -1.421875 
Q 20.21875 -1.421875 15.453125 -0.5625 
Q 10.6875 0.296875 5.421875 2 
L 5.421875 11.28125 
Q 10.40625 8.6875 15.234375 7.390625 
Q 20.0625 6.109375 24.8125 6.109375 
Q 31.15625 6.109375 34.5625 8.28125 
Q 37.984375 10.453125 37.984375 14.40625 
Q 37.984375 18.0625 35.515625 20.015625 
Q 33.0625 21.96875 24.703125 23.78125 
L 21.578125 24.515625 
Q 13.234375 26.265625 9.515625 29.90625 
Q 5.8125 33.546875 5.8125 39.890625 
Q 5.8125 47.609375 11.28125 51.796875 
Q 16.75 56 26.8125 56 
Q 31.78125 56 36.171875 55.265625 
Q 40.578125 54.546875 44.28125 53.078125 
z
" id="DejaVuSans-115"/>
     <path d="M 9.8125 72.90625 
L 51.703125 72.90625 
L 51.703125 64.59375 
L 19.671875 64.59375 
L 19.671875 43.109375 
L 48.578125 43.109375 
L 48.578125 34.8125 
L 19.671875 34.8125 
L 19.671875 0 
L 9.8125 0 
z
" id="DejaVuSans-70"/>
     <path d="M 9.421875 54.6875 
L 18.40625 54.6875 
L 18.40625 0 
L 9.421875 0 
z
M 9.421875 75.984375 
L 18.40625 75.984375 
L 18.40625 64.59375 
L 9.421875 64.59375 
z
" id="DejaVuSans-105"/>
    </defs>
    <g transform="translate(153.912936 86.031117)scale(0.1 -0.1)">
     <use xlink:href="#DejaVuSans-66"/>
     <use x="68.603516" xlink:href="#DejaVuSans-101"/>
     <use x="130.126953" xlink:href="#DejaVuSans-97"/>
     <use x="191.40625" xlink:href="#DejaVuSans-114"/>
     <use x="232.519531" xlink:href="#DejaVuSans-32"/>
     <use x="264.306641" xlink:href="#DejaVuSans-83"/>
     <use x="327.783203" xlink:href="#DejaVuSans-116"/>
     <use x="366.992188" xlink:href="#DejaVuSans-101"/>
     <use x="428.515625" xlink:href="#DejaVuSans-97"/>
     <use x="489.794922" xlink:href="#DejaVuSans-114"/>
     <use x="530.892578" xlink:href="#DejaVuSans-110"/>
     <use x="594.271484" xlink:href="#DejaVuSans-115"/>
     <use x="646.371094" xlink:href="#DejaVuSans-32"/>
     <use x="678.158203" xlink:href="#DejaVuSans-70"/>
     <use x="735.537109" xlink:href="#DejaVuSans-97"/>
     <use x="796.816406" xlink:href="#DejaVuSans-105"/>
     <use x="824.599609" xlink:href="#DejaVuSans-108"/>
     <use x="852.382812" xlink:href="#DejaVuSans-115"/>
    </g>
   </g>
   <g id="patch_9">
    <path d="M 198.765503 107.594631 
Q 198.765503 114.587321 198.765503 121.580012 
L 202.765503 121.580012 
Q 199.765503 127.579865 196.765503 133.579717 
Q 193.765503 127.579865 190.765503 121.580012 
L 194.765503 121.580012 
Q 194.765503 114.587321 194.765503 107.594631 
L 198.765503 107.594631 
z
" style="fill:#ff0000;stroke:#000000;stroke-linecap:round;"/>
   </g>
   <g id="text_19">
    <!-- Lehman Bankruptcy -->
    <defs>
     <path d="M 9.8125 72.90625 
L 19.671875 72.90625 
L 19.671875 8.296875 
L 55.171875 8.296875 
L 55.171875 0 
L 9.8125 0 
z
" id="DejaVuSans-76"/>
     <path d="M 54.890625 33.015625 
L 54.890625 0 
L 45.90625 0 
L 45.90625 32.71875 
Q 45.90625 40.484375 42.875 44.328125 
Q 39.84375 48.1875 33.796875 48.1875 
Q 26.515625 48.1875 22.3125 43.546875 
Q 18.109375 38.921875 18.109375 30.90625 
L 18.109375 0 
L 9.078125 0 
L 9.078125 75.984375 
L 18.109375 75.984375 
L 18.109375 46.1875 
Q 21.34375 51.125 25.703125 53.5625 
Q 30.078125 56 35.796875 56 
Q 45.21875 56 50.046875 50.171875 
Q 54.890625 44.34375 54.890625 33.015625 
z
" id="DejaVuSans-104"/>
     <path d="M 18.109375 8.203125 
L 18.109375 -20.796875 
L 9.078125 -20.796875 
L 9.078125 54.6875 
L 18.109375 54.6875 
L 18.109375 46.390625 
Q 20.953125 51.265625 25.265625 53.625 
Q 29.59375 56 35.59375 56 
Q 45.5625 56 51.78125 48.09375 
Q 58.015625 40.1875 58.015625 27.296875 
Q 58.015625 14.40625 51.78125 6.484375 
Q 45.5625 -1.421875 35.59375 -1.421875 
Q 29.59375 -1.421875 25.265625 0.953125 
Q 20.953125 3.328125 18.109375 8.203125 
z
M 48.6875 27.296875 
Q 48.6875 37.203125 44.609375 42.84375 
Q 40.53125 48.484375 33.40625 48.484375 
Q 26.265625 48.484375 22.1875 42.84375 
Q 18.109375 37.203125 18.109375 27.296875 
Q 18.109375 17.390625 22.1875 11.75 
Q 26.265625 6.109375 33.40625 6.109375 
Q 40.53125 6.109375 44.609375 11.75 
Q 48.6875 17.390625 48.6875 27.296875 
z
" id="DejaVuSans-112"/>
     <path d="M 48.78125 52.59375 
L 48.78125 44.1875 
Q 44.96875 46.296875 41.140625 47.34375 
Q 37.3125 48.390625 33.40625 48.390625 
Q 24.65625 48.390625 19.8125 42.84375 
Q 14.984375 37.3125 14.984375 27.296875 
Q 14.984375 17.28125 19.8125 11.734375 
Q 24.65625 6.203125 33.40625 6.203125 
Q 37.3125 6.203125 41.140625 7.25 
Q 44.96875 8.296875 48.78125 10.40625 
L 48.78125 2.09375 
Q 45.015625 0.34375 40.984375 -0.53125 
Q 36.96875 -1.421875 32.421875 -1.421875 
Q 20.0625 -1.421875 12.78125 6.34375 
Q 5.515625 14.109375 5.515625 27.296875 
Q 5.515625 40.671875 12.859375 48.328125 
Q 20.21875 56 33.015625 56 
Q 37.15625 56 41.109375 55.140625 
Q 45.0625 54.296875 48.78125 52.59375 
z
" id="DejaVuSans-99"/>
     <path d="M 32.171875 -5.078125 
Q 28.375 -14.84375 24.75 -17.8125 
Q 21.140625 -20.796875 15.09375 -20.796875 
L 7.90625 -20.796875 
L 7.90625 -13.28125 
L 13.1875 -13.28125 
Q 16.890625 -13.28125 18.9375 -11.515625 
Q 21 -9.765625 23.484375 -3.21875 
L 25.09375 0.875 
L 2.984375 54.6875 
L 12.5 54.6875 
L 29.59375 11.921875 
L 46.6875 54.6875 
L 56.203125 54.6875 
z
" id="DejaVuSans-121"/>
    </defs>
    <g transform="translate(196.765503 103.516616)scale(0.1 -0.1)">
     <use xlink:href="#DejaVuSans-76"/>
     <use x="55.697266" xlink:href="#DejaVuSans-101"/>
     <use x="117.220703" xlink:href="#DejaVuSans-104"/>
     <use x="180.599609" xlink:href="#DejaVuSans-109"/>
     <use x="278.011719" xlink:href="#DejaVuSans-97"/>
     <use x="339.291016" xlink:href="#DejaVuSans-110"/>
     <use x="402.669922" xlink:href="#DejaVuSans-32"/>
     <use x="434.457031" xlink:href="#DejaVuSans-66"/>
     <use x="503.060547" xlink:href="#DejaVuSans-97"/>
     <use x="564.339844" xlink:href="#DejaVuSans-110"/>
     <use x="627.71875" xlink:href="#DejaVuSans-107"/>
     <use x="685.628906" xlink:href="#DejaVuSans-114"/>
     <use x="726.742188" xlink:href="#DejaVuSans-117"/>
     <use x="790.121094" xlink:href="#DejaVuSans-112"/>
     <use x="853.597656" xlink:href="#DejaVuSans-116"/>
     <use x="892.806641" xlink:href="#DejaVuSans-99"/>
     <use x="947.787109" xlink:href="#DejaVuSans-121"/>
    </g>
   </g>
   <g id="text_20">
    <!-- Important dates in 2008-2009 financial crisis -->
    <defs>
     <path d="M 9.8125 72.90625 
L 19.671875 72.90625 
L 19.671875 0 
L 9.8125 0 
z
" id="DejaVuSans-73"/>
     <path d="M 45.40625 46.390625 
L 45.40625 75.984375 
L 54.390625 75.984375 
L 54.390625 0 
L 45.40625 0 
L 45.40625 8.203125 
Q 42.578125 3.328125 38.25 0.953125 
Q 33.9375 -1.421875 27.875 -1.421875 
Q 17.96875 -1.421875 11.734375 6.484375 
Q 5.515625 14.40625 5.515625 27.296875 
Q 5.515625 40.1875 11.734375 48.09375 
Q 17.96875 56 27.875 56 
Q 33.9375 56 38.25 53.625 
Q 42.578125 51.265625 45.40625 46.390625 
z
M 14.796875 27.296875 
Q 14.796875 17.390625 18.875 11.75 
Q 22.953125 6.109375 30.078125 6.109375 
Q 37.203125 6.109375 41.296875 11.75 
Q 45.40625 17.390625 45.40625 27.296875 
Q 45.40625 37.203125 41.296875 42.84375 
Q 37.203125 48.484375 30.078125 48.484375 
Q 22.953125 48.484375 18.875 42.84375 
Q 14.796875 37.203125 14.796875 27.296875 
z
" id="DejaVuSans-100"/>
    </defs>
    <g transform="translate(86.569688 28.56)scale(0.12 -0.12)">
     <use xlink:href="#DejaVuSans-73"/>
     <use x="29.492188" xlink:href="#DejaVuSans-109"/>
     <use x="126.904297" xlink:href="#DejaVuSans-112"/>
     <use x="190.380859" xlink:href="#DejaVuSans-111"/>
     <use x="251.5625" xlink:href="#DejaVuSans-114"/>
     <use x="292.675781" xlink:href="#DejaVuSans-116"/>
     <use x="331.884766" xlink:href="#DejaVuSans-97"/>
     <use x="393.164062" xlink:href="#DejaVuSans-110"/>
     <use x="456.542969" xlink:href="#DejaVuSans-116"/>
     <use x="495.751953" xlink:href="#DejaVuSans-32"/>
     <use x="527.539062" xlink:href="#DejaVuSans-100"/>
     <use x="591.015625" xlink:href="#DejaVuSans-97"/>
     <use x="652.294922" xlink:href="#DejaVuSans-116"/>
     <use x="691.503906" xlink:href="#DejaVuSans-101"/>
     <use x="753.027344" xlink:href="#DejaVuSans-115"/>
     <use x="805.126953" xlink:href="#DejaVuSans-32"/>
     <use x="836.914062" xlink:href="#DejaVuSans-105"/>
     <use x="864.697266" xlink:href="#DejaVuSans-110"/>
     <use x="928.076172" xlink:href="#DejaVuSans-32"/>
     <use x="959.863281" xlink:href="#DejaVuSans-50"/>
     <use x="1023.486328" xlink:href="#DejaVuSans-48"/>
     <use x="1087.109375" xlink:href="#DejaVuSans-48"/>
     <use x="1150.732422" xlink:href="#DejaVuSans-56"/>
     <use x="1214.355469" xlink:href="#DejaVuSans-45"/>
     <use x="1250.439453" xlink:href="#DejaVuSans-50"/>
     <use x="1314.0625" xlink:href="#DejaVuSans-48"/>
     <use x="1377.685547" xlink:href="#DejaVuSans-48"/>
     <use x="1441.308594" xlink:href="#DejaVuSans-57"/>
     <use x="1504.931641" xlink:href="#DejaVuSans-32"/>
     <use x="1536.71875" xlink:href="#DejaVuSans-102"/>
     <use x="1571.923828" xlink:href="#DejaVuSans-105"/>
     <use x="1599.707031" xlink:href="#DejaVuSans-110"/>
     <use x="1663.085938" xlink:href="#DejaVuSans-97"/>
     <use x="1724.365234" xlink:href="#DejaVuSans-110"/>
     <use x="1787.744141" xlink:href="#DejaVuSans-99"/>
     <use x="1842.724609" xlink:href="#DejaVuSans-105"/>
     <use x="1870.507812" xlink:href="#DejaVuSans-97"/>
     <use x="1931.787109" xlink:href="#DejaVuSans-108"/>
     <use x="1959.570312" xlink:href="#DejaVuSans-32"/>
     <use x="1991.357422" xlink:href="#DejaVuSans-99"/>
     <use x="2046.337891" xlink:href="#DejaVuSans-114"/>
     <use x="2087.451172" xlink:href="#DejaVuSans-105"/>
     <use x="2115.234375" xlink:href="#DejaVuSans-115"/>
     <use x="2167.333984" xlink:href="#DejaVuSans-105"/>
     <use x="2195.117188" xlink:href="#DejaVuSans-115"/>
    </g>
   </g>
  </g>
 </g>
 <defs>
  <clipPath id="p835f31ba7b">
   <rect height="195.84" width="334.8" x="54" y="34.56"/>
  </clipPath>
 </defs>
</svg>
